<svg width="36" height="42" viewBox="0 0 36 42" fill="none" xmlns="http://www.w3.org/2000/svg">
    <path fill-rule="evenodd" clip-rule="evenodd"
        d="M18.1129 6.20968C13.0355 6.20968 8.91938 10.3258 8.91938 15.4032C8.91938 20.4807 13.0355 24.5968 18.1129 24.5968C23.1904 24.5968 27.3065 20.4807 27.3065 15.4032C27.3065 10.3258 23.1904 6.20968 18.1129 6.20968ZM11.9839 15.4032C11.9839 12.0183 14.728 9.27419 18.1129 9.27419C21.4979 9.27419 24.242 12.0183 24.242 15.4032C24.242 18.7882 21.4979 21.5323 18.1129 21.5323C14.728 21.5323 11.9839 18.7882 11.9839 15.4032Z"
        fill="#CF0303" />
    <path fill-rule="evenodd" clip-rule="evenodd"
        d="M20.3102 1.06425C18.9402 0.318671 17.2856 0.318671 15.9156 1.06425L15.744 1.15763C15.471 1.30624 15.1591 1.36827 14.8499 1.33547L14.6557 1.31486C13.1047 1.15032 11.576 1.78351 10.5956 2.99662L10.4728 3.14854C10.2774 3.39035 10.013 3.56699 9.71483 3.655L9.52749 3.7103C8.03154 4.15184 6.86154 5.32183 6.42 6.81778L6.36471 7.00513C6.2767 7.30331 6.10006 7.56767 5.85825 7.7631L5.70632 7.88588C4.49322 8.86628 3.86002 10.395 4.02457 11.946L4.04518 12.1402C4.07798 12.4494 4.01595 12.7612 3.86733 13.0343L3.77396 13.2059C3.02838 14.5759 3.02838 16.2305 3.77396 17.6005L3.86733 17.7721C4.01595 18.0452 4.07798 18.357 4.04518 18.6662L4.02457 18.8605C3.86002 20.4115 4.49322 21.9402 5.70632 22.9206L5.85825 23.0434C6.10006 23.2388 6.2767 23.5031 6.36471 23.8013L6.42 23.9887C6.43827 24.0506 6.45779 24.1119 6.47853 24.1727L0.546959 34.4464C0.264414 34.9358 0.274158 35.541 0.572313 36.021C0.870468 36.5011 1.40863 36.778 1.97255 36.7416L6.46634 36.4518L8.46225 40.4885C8.71271 40.995 9.22165 41.3226 9.78645 41.3408C10.3512 41.359 10.8802 41.0649 11.1628 40.5755L17.153 30.2001C17.7865 30.3353 18.442 30.3351 19.0755 30.1996L25.066 40.5755C25.3486 41.0649 25.8775 41.359 26.4423 41.3408C27.0071 41.3226 27.516 40.995 27.7665 40.4885L29.7624 36.4518L34.2562 36.7416C34.8201 36.778 35.3583 36.5011 35.6564 36.021C35.9546 35.541 35.9643 34.9358 35.6818 34.4464L29.7484 24.1695C29.7687 24.1098 29.7879 24.0495 29.8059 23.9887L29.8612 23.8013C29.9492 23.5031 30.1258 23.2388 30.3676 23.0434L30.5195 22.9206C31.7326 21.9402 32.3658 20.4115 32.2013 18.8605L32.1807 18.6662C32.1479 18.357 32.2099 18.0452 32.3585 17.7721L32.4519 17.6005C33.1975 16.2305 33.1975 14.5759 32.4519 13.2059L32.3585 13.0343C32.2099 12.7612 32.1479 12.4494 32.1807 12.1402L32.2013 11.946C32.3658 10.3949 31.7326 8.86628 30.5195 7.88588L30.3676 7.7631C30.1258 7.56767 29.9492 7.30332 29.8612 7.00513L29.8059 6.81778C29.3643 5.32183 28.1943 4.15184 26.6984 3.7103L26.511 3.655C26.2128 3.56699 25.9485 3.39035 25.7531 3.14854L25.6303 2.99662C24.6499 1.78351 23.1212 1.15032 21.5702 1.31486L21.3759 1.33547C21.0667 1.36827 20.7549 1.30624 20.4818 1.15763L20.3102 1.06425ZM27.6632 26.6869C27.3616 26.8578 27.0384 26.9958 26.6984 27.0961L26.511 27.1514C26.2128 27.2395 25.9485 27.4161 25.7531 27.6579L25.6303 27.8098C24.7871 28.8532 23.5383 29.4676 22.2185 29.5144L26.2884 36.5637L27.4681 34.1779C27.7423 33.6234 28.323 33.2881 28.9403 33.3279L31.5963 33.4992L27.6632 26.6869ZM4.63243 33.4992L8.56483 26.6881C8.86582 26.8585 9.18828 26.996 9.52749 27.0961L9.71483 27.1514C10.013 27.2395 10.2774 27.4161 10.4728 27.6579L10.5956 27.8098C11.4394 28.8539 12.6894 29.4685 14.0102 29.5145L9.94033 36.5637L8.76064 34.1779C8.48648 33.6234 7.90579 33.2881 7.2885 33.3279L4.63243 33.4992ZM17.3805 3.75598C17.8372 3.50745 18.3887 3.50745 18.8454 3.75598L19.0169 3.84935C19.8362 4.2952 20.7717 4.48128 21.6992 4.38289L21.8935 4.36228C22.4105 4.30743 22.92 4.5185 23.2468 4.92286L23.3696 5.07479C23.9559 5.80022 24.749 6.33013 25.6435 6.59417L25.8309 6.64946C26.3295 6.79664 26.7195 7.18664 26.8667 7.68529L26.922 7.87264C27.186 8.7672 27.7159 9.56028 28.4414 10.1465L28.5933 10.2693C28.9977 10.5961 29.2087 11.1057 29.1539 11.6227L29.1333 11.817C29.0349 12.7445 29.221 13.68 29.6668 14.4992L29.7602 14.6708C30.0087 15.1275 30.0087 15.679 29.7602 16.1357L29.6668 16.3072C29.221 17.1265 29.0349 18.062 29.1333 18.9895L29.1539 19.1838C29.2087 19.7008 28.9977 20.2103 28.5933 20.5371L28.4414 20.6599C27.7159 21.2462 27.186 22.0393 26.922 22.9338L26.8667 23.1212C26.7195 23.6198 26.3295 24.0098 25.8309 24.157L25.6435 24.2123C24.749 24.4763 23.9559 25.0062 23.3696 25.7317L23.2468 25.8836C22.92 26.288 22.4105 26.499 21.8935 26.4442L21.6992 26.4236C20.7717 26.3252 19.8362 26.5113 19.0169 26.9571L18.8454 27.0505C18.3887 27.299 17.8372 27.299 17.3805 27.0505L17.2089 26.9571C16.3897 26.5113 15.4542 26.3252 14.5267 26.4236L14.3324 26.4442C13.8154 26.499 13.3058 26.288 12.979 25.8836L12.8563 25.7317C12.27 25.0062 11.4769 24.4763 10.5823 24.2123L10.395 24.157C9.89635 24.0098 9.50635 23.6198 9.35917 23.1212L9.30387 22.9338C9.03984 22.0393 8.50992 21.2462 7.78449 20.6599L7.63257 20.5371C7.2282 20.2103 7.01714 19.7008 7.07198 19.1838L7.09259 18.9895C7.19099 18.062 7.00491 17.1265 6.55906 16.3072L6.46568 16.1357C6.21715 15.679 6.21715 15.1275 6.46568 14.6708L6.55906 14.4992C7.00491 13.68 7.19099 12.7445 7.09259 11.817L7.07198 11.6227C7.01714 11.1057 7.2282 10.5961 7.63257 10.2693L7.78449 10.1465C8.50992 9.56028 9.03984 8.7672 9.30387 7.87264L9.35917 7.68529C9.50635 7.18664 9.89635 6.79664 10.395 6.64946L10.5823 6.59417C11.4769 6.33013 12.27 5.80021 12.8563 5.07479L12.979 4.92286C13.3058 4.51849 13.8154 4.30743 14.3324 4.36228L14.5267 4.38289C15.4542 4.48128 16.3897 4.2952 17.2089 3.84935L17.3805 3.75598Z"
        fill="#CF0303" />
</svg>