<svg width="202" height="20" viewBox="0 0 202 20" fill="none" xmlns="http://www.w3.org/2000/svg">
    <g opacity="0.5" clip-path="url(#clip0_1_2710)">
        <path
            d="M86.1218 2.00157L81.9551 10.9334L77.7902 2.00157H63.4864V21.2375H74.7625V11.4549L78.9644 21.2375H84.9496L89.1513 11.4549V21.2375H100.423V2.00157H86.1218ZM125.479 2.00157L121.313 10.9334L117.147 2.00157H102.845V21.2375H114.119V11.4549L118.321 21.2375H124.307L128.511 11.4549V21.2375H139.782V2.00157H125.479ZM17.9332 2.00157V9.06241H12.3101V2.00157H0.361206V21.2375H12.3101V13.9645H17.9332V21.2375H29.8831V2.00157H17.9332ZM167.89 6.63119V2.00157H142.262V21.2375L167.89 21.236V16.6064H154.214V13.7295H167.89V9.51562H154.214V6.63119H167.89ZM44.0032 2.00741L44.0017 14.9123C44.0249 16.5735 45.154 16.9878 46.6925 16.9878C48.1958 16.9878 49.3419 16.5465 49.3419 14.8763V2.00741H61.258V14.9526C61.258 20.6604 56.9587 21.8938 46.6925 21.8923C36.4128 21.8906 32.0841 20.6811 32.0841 14.9512V2.00741H44.0032ZM185.56 10.7835C187.791 10.7835 188.857 9.99972 188.857 8.40729C188.857 6.40958 187.511 5.87415 185.547 5.87415H182.054V10.7835H185.56ZM188.885 21.2316L182.06 14.3362V21.2375H170.108V2.00157L189.304 2.00011C193.333 2.00011 200.001 1.8938 199.645 8.31169C199.478 11.3126 196.237 13.502 193.662 14.0406L201.639 21.2316H188.885Z"
            fill="black" />
    </g>
    <defs>
        <clipPath id="clip0_1_2710">
            <rect width="202" height="20" fill="white" />
        </clipPath>
    </defs>
</svg>