<svg width="125" height="50" viewBox="0 0 125 50" fill="none" xmlns="http://www.w3.org/2000/svg">
    <g opacity="0.5">
        <path fill-rule="evenodd" clip-rule="evenodd"
            d="M61.2201 11.6978H63.723C63.7301 10.8471 63.7358 10.0335 63.7408 9.26534H65.2258C65.2258 9.57401 65.3174 9.87573 65.4889 10.1324C65.6604 10.389 65.9041 10.589 66.1893 10.7071C66.4745 10.8252 66.7883 10.856 67.091 10.7958C67.3937 10.7355 67.6718 10.5868 67.89 10.3685C68.1082 10.1502 68.2567 9.87209 68.3169 9.56934C68.377 9.26659 68.346 8.95281 68.2278 8.66769C68.1096 8.38256 67.9094 8.1389 67.6527 7.96752C67.396 7.79614 67.0942 7.70474 66.7856 7.70488H63.7514C63.7763 4.0683 63.7905 1.76103 63.7905 1.76103L64.5907 0.00782479L60.3972 0L61.191 1.75606C61.191 1.75606 61.1959 4.06617 61.2066 7.70488H59.7535C59.7535 7.39625 59.662 7.09455 59.4906 6.83794C59.3191 6.58132 59.0754 6.38131 58.7902 6.2632C58.5051 6.14509 58.1913 6.11419 57.8886 6.1744C57.5859 6.23461 57.3079 6.38323 57.0897 6.60147C56.8714 6.8197 56.7228 7.09775 56.6626 7.40045C56.6024 7.70315 56.6333 8.01691 56.7514 8.30204C56.8695 8.58718 57.0695 8.83089 57.3261 9.00236C57.5827 9.17382 57.8844 9.26534 58.1931 9.26534H61.2116C61.2146 10.0762 61.2174 10.887 61.2201 11.6978V11.6978ZM61.3965 36.6681C61.4491 41.9761 61.5131 45.8879 61.5893 46.7506C61.7173 48.1845 61.8361 48.8452 62.388 48.8388C62.9392 48.8474 63.0615 48.1873 63.1945 46.7535C63.2735 45.8907 63.3531 41.9775 63.4264 36.6681H61.3965V36.6681ZM7.03276 29.7932H14.2632C14.6978 29.7932 14.8557 29.5962 14.9745 28.6872H15.4489V35.641H14.9745C14.8557 34.8103 14.6978 34.6133 14.2632 34.6133H0V34.1396C0.987915 34.0606 1.10669 33.784 1.10669 33.4284V15.0164C1.10669 14.6608 0.987915 14.3841 0 14.3052V13.8308H8.13945V14.3052C7.15153 14.3841 7.03276 14.6608 7.03276 15.0164V29.7932V29.7932ZM33.3963 27.0272H32.9219C32.8032 26.5144 32.5265 26.1189 31.7363 26.1189H24.3878V29.7932H32.7641C33.1986 29.7932 33.3565 29.5962 33.4753 28.6083H33.9497V35.4831H33.4753C33.3565 34.811 33.1986 34.6133 32.7641 34.6133H17.355V34.1396C18.3429 34.0606 18.4617 33.784 18.4617 33.4284V15.0164C18.4617 14.6608 18.3429 14.3841 17.355 14.3052V13.8308H32.7641C33.1986 13.8308 33.3565 13.6331 33.4753 12.7248H33.9497V19.5997H33.4753C33.3565 18.6907 33.1986 18.493 32.7641 18.493H24.3878V21.7725H31.737C32.5272 21.7725 32.8039 21.3771 32.9227 20.8636H33.3971V27.0272H33.3963V27.0272ZM70.3695 26.3949L70.7643 26.5933C70.6853 26.7903 70.6853 27.067 70.6853 27.4226C70.6853 28.4895 74.9122 30.2676 79.0218 30.2676C82.9742 30.2676 84.7523 29.3188 84.7523 27.5812C84.7523 24.6573 68.4726 27.8963 68.4726 20.2711C68.4726 16.3201 72.2664 13.5932 78.0744 13.5932C83.4877 13.5932 87.3981 15.2526 88.4649 15.2526C88.9792 15.2526 89.2551 14.9759 89.5318 14.6601L89.9664 14.818L87.2409 20.3102L86.7658 20.0734V19.6388C86.7658 18.6509 82.2622 17.5449 78.5474 17.5449C75.1107 17.5449 73.9243 18.493 73.9243 19.402C73.9243 22.9183 90.2829 18.6118 90.2829 27.6993C90.2829 31.0969 87.7146 34.8508 79.1406 34.8508C72.5424 34.8508 69.6177 33.0336 68.7095 33.0336C68.393 33.0336 68.1569 33.3103 67.9193 33.5464L67.4456 33.4284L70.3695 26.3949V26.3949ZM92.3263 34.6133V34.1396C93.3142 34.0606 93.4337 33.784 93.4337 33.4284V15.0164C93.4337 14.6608 93.3142 14.3841 92.3263 14.3052V13.8308H100.465V14.3052C99.4771 14.3841 99.359 14.6608 99.359 15.0164V33.4284C99.359 33.784 99.4771 34.0606 100.465 34.1396V34.6133H92.3263V34.6133ZM110.341 33.4284C110.341 33.784 110.459 34.0606 111.447 34.1396V34.6133H103.309V34.1396C104.296 34.0606 104.415 33.784 104.415 33.4284V15.0164C104.415 14.6608 104.296 14.3841 103.309 14.3052V13.8308H117.453C122.432 13.8308 125 16.9126 125 20.429C125 23.9454 122.432 26.9881 117.453 26.9881H110.342V33.4284H110.341V33.4284Z"
            fill="black" />
        <path fill-rule="evenodd" clip-rule="evenodd"
            d="M110.342 22.8003H116.347C118.48 22.8003 119.547 22.089 119.547 20.4297C119.547 18.8885 118.48 18.2562 116.347 18.2562H110.342V22.8003Z"
            fill="white" />
        <path fill-rule="evenodd" clip-rule="evenodd"
            d="M66.4635 14.3052V13.8308H53.696V14.3052C54.4051 14.345 54.76 14.542 54.76 15.0164C54.76 15.2931 52.0851 24.2227 51.642 25.2896C51.1989 24.2227 48.5239 15.2931 48.5239 15.0164C48.5239 14.542 48.8788 14.345 49.5879 14.3052V13.8308H36.819V14.3052C37.9271 14.3841 38.0601 14.6608 38.0601 15.0164V33.4283C38.0601 33.784 37.9271 34.0606 36.819 34.1396V34.6133H44.6199V34.1396C43.5118 34.0606 43.3788 33.784 43.3788 33.4283V18.6516H43.4677L48.4122 33.9283C48.2308 34.0315 47.9321 34.1047 47.4421 34.1396V34.6133H56.0332V34.1396C55.366 34.0926 55.0538 33.9732 54.9094 33.8074L59.8148 18.6509H59.9037V33.4276C59.9037 33.7832 59.7707 34.0599 58.6626 34.1389V34.6126H66.4635V34.1389C65.3547 34.0599 65.2217 33.7832 65.2217 33.4276V15.0164C65.2217 14.6608 65.3554 14.3841 66.4635 14.3052V14.3052ZM64.9998 1.77596C71.8234 2.54623 77.7424 6.29732 81.4252 11.6978H83.549C79.7452 5.50072 73.2986 1.10312 65.7765 0.0753774L64.9998 1.77596ZM43.351 11.6978C47.0694 6.24468 53.0687 2.47155 59.9763 1.7532L59.2053 0.0476379C51.5957 1.02204 45.0651 5.44454 41.228 11.6985H43.351V11.6978V11.6978ZM60.78 48.6838C60.6825 48.3936 60.6185 48.0465 60.5652 47.6084C53.0822 47.0223 46.6049 42.8573 42.8403 36.8259H40.7664C44.8404 44.0465 52.4257 49.0223 61.2046 49.4341C61.0122 49.2164 60.8675 48.9608 60.78 48.6838ZM81.9344 36.8259C78.1713 42.8566 71.6961 47.0194 64.216 47.6069C64.1605 48.0486 64.0951 48.3971 63.9962 48.6902C63.9087 48.9653 63.7637 49.2186 63.5709 49.4334C72.3505 49.0209 79.9351 44.045 84.0077 36.8252H81.9344V36.8259V36.8259Z"
            fill="black" />
    </g>
</svg>