<svg width="24" height="23" viewBox="0 0 24 23" fill="none" xmlns="http://www.w3.org/2000/svg">
    <path fill-rule="evenodd" clip-rule="evenodd"
        d="M9.04335 8.01435H13.3144V10.1419C13.9297 8.91825 15.5075 7.81885 17.8776 7.81885C22.4213 7.81885 23.5 10.2545 23.5 14.7235V23H18.9V15.7412C18.9 13.1962 18.2847 11.7611 16.7185 11.7611C14.5461 11.7611 13.6433 13.3078 13.6433 15.7401V23H9.04335V8.01435ZM1.1555 22.8045H5.7555V7.81885H1.1555V22.8045ZM6.41445 2.9325C6.41462 3.31807 6.33815 3.69982 6.1895 4.05558C6.04084 4.41133 5.82295 4.73399 5.5485 5.0048C4.99236 5.55752 4.23958 5.8669 3.4555 5.865C2.6728 5.86447 1.92176 5.55588 1.3648 5.00595C1.09134 4.73422 0.874194 4.4112 0.725795 4.0554C0.577397 3.6996 0.500666 3.31801 0.5 2.9325C0.5 2.15395 0.8105 1.40875 1.36595 0.85905C1.92242 0.308382 2.67378 -0.000344092 3.45665 2.87804e-07C4.24095 2.87804e-07 4.99305 0.30935 5.5485 0.85905C6.1028 1.40875 6.41445 2.15395 6.41445 2.9325Z"
        fill="#CF0303" />
</svg>