<svg width="139" height="43" viewBox="0 0 139 43" fill="none" xmlns="http://www.w3.org/2000/svg">
<path d="M12.08 6.35999C14.4 6.35999 16.3333 6.91999 17.88 8.03999C19.96 9.53332 21 11.8667 21 15.04C21 17.3333 20.36 19.2933 19.08 20.92C17.6933 22.6533 15.76 23.52 13.28 23.52C11.9733 23.52 10.7867 23.2133 9.71999 22.6C8.65332 21.96 8.02665 20.88 7.83999 19.36L8.19999 19.24C8.49332 20.3867 9.17332 21.1867 10.24 21.64C10.96 21.96 11.6 22.12 12.16 22.12C14.3467 22.12 15.9333 21.2667 16.92 19.56C17.64 18.3067 18 16.8133 18 15.08C18 12.3067 17.2267 10.3067 15.68 9.07999C14.5067 8.11999 13.0133 7.63999 11.2 7.63999C10.7733 7.63999 10.4 7.66665 10.08 7.71999C9.78665 7.74665 8.45332 7.95999 6.07999 8.35999V32.08C6.10665 32.8 6.37332 33.4 6.87999 33.88C7.38665 34.36 7.97332 34.6 8.63999 34.6H9.15999V35H0.399985V34.6H0.919986C1.58665 34.6 2.17332 34.36 2.67999 33.88C3.18665 33.4 3.45332 32.8 3.47999 32.08V10.44C3.47999 9.74665 3.27999 9.21332 2.87999 8.83998C2.47999 8.43999 1.95999 8.23999 1.31999 8.23999C1.18665 8.23999 1.05332 8.25332 0.919986 8.27998L0.439985 8.31998L0.359985 7.91998C1.74665 7.78665 3.59999 7.53332 5.91999 7.15999C8.26665 6.75999 9.71999 6.53332 10.28 6.47998C10.84 6.39999 11.44 6.35999 12.08 6.35999Z" fill="black"/>
<path d="M33.054 8.23999H30.494V32.08C30.494 32.7733 30.734 33.3733 31.214 33.88C31.7207 34.36 32.334 34.6 33.054 34.6H33.534L33.574 35H24.814V34.6H25.334C26.0274 34.6 26.614 34.36 27.094 33.88C27.6007 33.4 27.8674 32.8133 27.894 32.12V9.91999C27.8674 9.22665 27.6007 8.63999 27.094 8.15999C26.614 7.65332 26.0274 7.39998 25.334 7.39998H24.814V6.99998H35.614C38.0407 6.99998 39.9474 7.67998 41.334 9.03998C42.7207 10.3733 43.414 12.12 43.414 14.28C43.414 16.4133 42.7474 18.2667 41.414 19.84C40.1074 21.3867 38.5074 22.16 36.614 22.16C37.014 22.3467 37.4807 22.72 38.014 23.28C38.5741 23.8133 39.0674 24.3733 39.494 24.96C41.7874 28.24 43.2807 30.2667 43.974 31.04C44.6674 31.7867 45.1607 32.3067 45.454 32.6C45.7474 32.8667 46.0674 33.1333 46.414 33.4C46.7607 33.6667 47.1074 33.88 47.454 34.04C48.2274 34.4133 49.054 34.6 49.934 34.6V35H47.734C46.5874 35 45.5207 34.8 44.534 34.4C43.5474 33.9733 42.8007 33.5467 42.294 33.12C41.814 32.6667 41.3874 32.24 41.014 31.84C40.6674 31.4133 39.6807 30.0267 38.054 27.68C36.4274 25.3333 35.4807 24 35.214 23.68C34.9474 23.3333 34.6674 23 34.374 22.68C33.5207 21.7733 32.6674 21.32 31.814 21.32V20.92C32.0274 20.9467 32.3074 20.96 32.654 20.96C33.0007 20.96 33.4274 20.9467 33.934 20.92C37.2407 20.84 39.3207 19.4533 40.174 16.76C40.334 16.2267 40.414 15.7333 40.414 15.28C40.414 14.8 40.414 14.4933 40.414 14.36C40.3607 12.5733 39.8941 11.1333 39.014 10.04C38.134 8.94665 36.9474 8.35999 35.454 8.27998C34.814 8.25332 34.014 8.23999 33.054 8.23999Z" fill="black"/>
<path d="M53.5675 10.48C56.4208 7.78665 60.1142 6.43999 64.6475 6.43999C69.2075 6.43999 72.9142 7.78665 75.7675 10.48C78.6208 13.1467 80.0475 16.6533 80.0475 21C80.0475 25.3467 78.6208 28.8667 75.7675 31.56C72.9142 34.2267 69.2075 35.56 64.6475 35.56C60.1142 35.56 56.4208 34.2267 53.5675 31.56C50.7142 28.8667 49.2875 25.3467 49.2875 21C49.2875 16.6533 50.7142 13.1467 53.5675 10.48ZM55.7275 30.68C57.9942 33.1333 60.9675 34.36 64.6475 34.36C68.3275 34.36 71.2875 33.1333 73.5275 30.68C75.7942 28.2267 76.9275 25 76.9275 21C76.9275 17 75.7942 13.7733 73.5275 11.32C71.2875 8.86665 68.3275 7.63999 64.6475 7.63999C60.9675 7.63999 57.9942 8.86665 55.7275 11.32C53.4875 13.7733 52.3675 17 52.3675 21C52.3675 25 53.4875 28.2267 55.7275 30.68Z" fill="black"/>
<path d="M92.2337 7.39998C91.2737 7.39998 90.5404 7.81332 90.0337 8.63999C89.8204 9.01332 89.7004 9.43999 89.6737 9.91999V35C89.6737 37.24 88.9671 39.1333 87.5537 40.68C86.1671 42.2267 84.4471 43 82.3937 43V42.64C83.7004 42.1867 84.8071 41.2 85.7137 39.68C86.6204 38.1867 87.0737 36.5867 87.0737 34.88V9.91999C87.0471 9.22665 86.7804 8.63999 86.2737 8.15999C85.7937 7.65332 85.2071 7.39998 84.5137 7.39998H83.9937V6.99998H92.7537V7.39998H92.2337Z" fill="black"/>
<path d="M134.282 34.6H134.842V35H121.202V34.6H121.722C122.282 34.6 122.736 34.3333 123.082 33.8C123.242 33.5067 123.322 33.2267 123.322 32.96C123.322 32.6933 123.242 32.4267 123.082 32.16L117.522 23.48L109.762 34.52C106.616 38.9467 103.162 41.16 99.4025 41.16C98.8425 41.16 98.2692 41.1067 97.6825 41V40.6C100.029 40.3867 102.042 39.3867 103.722 37.6C104.522 36.7467 105.482 35.56 106.602 34.04L115.962 21.08L108.642 9.76001C108.029 8.82668 107.216 8.14668 106.202 7.72001C105.669 7.50668 105.136 7.40001 104.602 7.40001H104.042V7.00001H117.642V7.40001H117.122C116.562 7.40001 116.109 7.66668 115.762 8.20001C115.602 8.49334 115.522 8.78668 115.522 9.08001C115.522 9.34668 115.589 9.60001 115.722 9.84001L120.642 17.4L127.603 7.16001C130.643 2.70668 134.056 0.480011 137.842 0.480011C138.162 0.480011 138.496 0.493345 138.842 0.520011V0.920011C136.656 0.973345 134.469 2.48001 132.282 5.44001C131.962 5.84001 131.642 6.26668 131.322 6.72001C131.029 7.17334 130.842 7.44001 130.762 7.52001L122.242 19.88L130.243 32.28C130.696 32.9467 131.282 33.5067 132.002 33.96C132.749 34.3867 133.509 34.6 134.282 34.6Z" fill="#CF0303"/>
</svg>
