<svg width="170" height="24" viewBox="0 0 170 24" fill="none" xmlns="http://www.w3.org/2000/svg">
    <g opacity="0.5">
        <path fill-rule="evenodd" clip-rule="evenodd"
            d="M66.3928 12.3329L68.9136 6.46149H66.4692C65.0319 6.46149 63.6854 7.25273 62.8439 9.21342L61.5051 12.3339H66.3928V12.3329ZM58.1438 3.41839C60.3096 1.50026 63.637 0 66.6076 0H80.0258L70.0792 23.1685H61.7411L64.5366 16.6567H59.6489L56.8534 23.1685H48.467L53.9738 10.3393C55.2284 7.42007 55.8832 5.33556 58.1438 3.41839Z"
            fill="black" />
        <path fill-rule="evenodd" clip-rule="evenodd" d="M0 23.1675H9.42236L12.2817 16.1895H2.8593L0 23.1675V23.1675Z"
            fill="#E5AC52" />
        <path fill-rule="evenodd" clip-rule="evenodd"
            d="M52.1447 3.49384C51.5537 1.51767 49.7574 0.00386593 45.7954 0.00386593H22.3599L12.8689 23.1685H21.2766L28.3562 5.88982H29.8052C32.1731 5.88982 31.8461 6.6888 31.0539 8.62241L25.0935 23.1685H33.0659L40.1455 5.88982H41.5954C44.0117 5.88982 43.6354 6.6888 42.8442 8.62241L36.8828 23.1685H45.3388L50.5409 10.4728C51.988 6.9403 52.7531 5.42745 52.1447 3.49384V3.49384ZM79.3381 7.19275C77.5292 11.6065 79.9823 14.4658 84.3302 14.4658H87.9053C88.92 14.4658 89.2151 14.9291 89.0071 15.4331L88.922 15.643C88.6975 16.1895 88.121 16.6519 86.672 16.6519H76.0899L73.4202 23.1685H85.3546C90.9117 23.1685 95.6436 19.6369 96.9195 16.5261L97.5734 14.9291C98.8318 11.8599 97.7117 7.99271 92.5406 7.99271H88.4335C87.9005 7.99271 87.4285 7.61353 87.6703 7.02542C87.9634 6.31059 88.6018 5.93238 89.3253 5.93238H99.5689L101.999 0.00483268H90.5954C86.1487 0.0038654 81.1982 2.6523 79.3381 7.19275ZM109.007 12.153L109.694 10.4719C110.229 9.16892 111.207 7.36687 111.78 6.78649C112.407 6.15969 112.848 5.90626 113.968 5.88982H120.947L123.359 0.00386593H114.227C111.135 0.00386593 108.095 1.64439 106.015 3.53544C103.956 5.25915 102.568 7.23532 101.033 10.9768L100.448 12.4064C98.9334 16.1054 98.7989 18.0815 99.2845 19.8468C99.8098 21.8646 101.74 23.1685 104.737 23.1685H113.867L116.539 16.6519H109.435C108.371 16.6519 108.228 16.1025 108.155 15.7697C107.987 14.8875 108.489 13.4144 109.007 12.153V12.153ZM119.071 19.7201C119.63 21.6547 121.716 23.1675 124.713 23.1675H138.241L147.732 0.00289917H139.325L132.503 16.6499H130.039C128.59 16.6499 127.903 15.8519 128.711 13.8758L134.396 0.00289917H125.94L120.722 12.7411C119.516 15.6846 118.414 17.7865 119.071 19.7201V19.7201ZM147.339 7.19275C145.532 11.6065 147.984 14.4658 152.331 14.4658H155.907C156.921 14.4658 157.216 14.9291 157.008 15.4331L156.923 15.643C156.699 16.1895 156.122 16.6519 154.673 16.6519H144.092L141.423 23.1685H153.357C158.913 23.1685 163.646 19.6369 164.921 16.5261L165.575 14.9291C166.833 11.8599 165.711 7.99271 160.542 7.99271H156.435C155.904 7.99271 155.43 7.61353 155.672 7.02542C155.965 6.31059 156.603 5.93238 157.327 5.93238H167.57L170 0.00483268H158.597C154.15 0.0038654 149.2 2.6523 147.339 7.19275V7.19275Z"
            fill="black" />
    </g>
</svg>