<svg width="74" height="127" viewBox="0 0 74 127" fill="none" xmlns="http://www.w3.org/2000/svg">
    <circle cx="48" cy="123.5" r="3.5" transform="rotate(-90 48 123.5)" fill="#FED70A" fill-opacity="0.5" />
    <circle cx="48" cy="93.5" r="3.5" transform="rotate(-90 48 93.5)" fill="#FED70A" fill-opacity="0.5" />
    <circle cx="48" cy="63.5" r="3.5" transform="rotate(-90 48 63.5)" fill="#FED70A" fill-opacity="0.5" />
    <circle cx="48" cy="33.5" r="3.5" transform="rotate(-90 48 33.5)" fill="#FED70A" fill-opacity="0.5" />
    <circle cx="48" cy="3.5" r="3.5" transform="rotate(-90 48 3.5)" fill="#FED70A" fill-opacity="0.5" />
    <circle cx="4" cy="123.5" r="3.5" transform="rotate(-90 4 123.5)" fill="#FED70A" fill-opacity="0.5" />
    <circle cx="70" cy="123.5" r="3.5" transform="rotate(-90 70 123.5)" fill="#FED70A" fill-opacity="0.5" />
    <circle cx="4" cy="93.5" r="3.5" transform="rotate(-90 4 93.5)" fill="#FED70A" fill-opacity="0.5" />
    <circle cx="70" cy="93.5" r="3.5" transform="rotate(-90 70 93.5)" fill="#FED70A" fill-opacity="0.5" />
    <circle cx="4" cy="63.5" r="3.5" transform="rotate(-90 4 63.5)" fill="#FED70A" fill-opacity="0.5" />
    <circle cx="70" cy="63.5" r="3.5" transform="rotate(-90 70 63.5)" fill="#FED70A" fill-opacity="0.5" />
    <circle cx="4" cy="33.5" r="3.5" transform="rotate(-90 4 33.5)" fill="#FED70A" fill-opacity="0.5" />
    <circle cx="4" cy="3.5" r="3.5" transform="rotate(-90 4 3.5)" fill="#FED70A" fill-opacity="0.5" />
    <circle cx="70" cy="33.5" r="3.5" transform="rotate(-90 70 33.5)" fill="#FED70A" fill-opacity="0.5" />
    <circle cx="70" cy="3.5" r="3.5" transform="rotate(-90 70 3.5)" fill="#FED70A" fill-opacity="0.5" />
    <circle cx="26" cy="123.5" r="3.5" transform="rotate(-90 26 123.5)" fill="#FED70A" fill-opacity="0.5" />
    <circle cx="26" cy="93.5" r="3.5" transform="rotate(-90 26 93.5)" fill="#FED70A" fill-opacity="0.5" />
    <circle cx="26" cy="63.5" r="3.5" transform="rotate(-90 26 63.5)" fill="#FED70A" fill-opacity="0.5" />
    <circle cx="26" cy="33.5" r="3.5" transform="rotate(-90 26 33.5)" fill="#FED70A" fill-opacity="0.5" />
    <circle cx="26" cy="3.5" r="3.5" transform="rotate(-90 26 3.5)" fill="#FED70A" fill-opacity="0.5" />
</svg>