<svg width="20" height="42" viewBox="0 0 20 42" fill="none" xmlns="http://www.w3.org/2000/svg">
    <path
        d="M11.7581 22.6129C11.7581 21.7221 11.036 21 10.1452 21C9.25441 21 8.53229 21.7221 8.53229 22.6129V25.8387C8.53229 26.7295 9.25441 27.4516 10.1452 27.4516C11.036 27.4516 11.7581 26.7295 11.7581 25.8387V22.6129Z"
        fill="#CF0303" />
    <path fill-rule="evenodd" clip-rule="evenodd"
        d="M0.467773 9.70965C0.467773 12.5999 1.73481 15.1942 3.74375 16.9675L5.31006 40.4621C5.36654 41.3094 6.07025 41.9677 6.91939 41.9677H13.371C14.2201 41.9677 14.9238 41.3094 14.9803 40.4621L16.5466 16.9675C18.5556 15.1942 19.8226 12.5999 19.8226 9.70965C19.8226 4.36495 15.4899 0.0322266 10.1452 0.0322266C4.8005 0.0322266 0.467773 4.36495 0.467773 9.70965ZM4.03821 7.6238C4.90536 5.08428 7.312 3.25803 10.1452 3.25803C12.9784 3.25803 15.385 5.08428 16.2522 7.6238C15.965 7.833 15.609 8.07085 15.1917 8.30925C13.9435 9.02256 12.2036 9.70965 10.1452 9.70965C8.08677 9.70965 6.34692 9.02256 5.09864 8.30925C4.68143 8.07085 4.3254 7.833 4.03821 7.6238ZM3.89899 11.3309C4.26754 12.7549 5.11017 13.988 6.24843 14.8519C6.26599 14.8646 6.28329 14.8776 6.30032 14.8909C7.37408 15.689 8.70449 16.1613 10.1452 16.1613C11.5859 16.1613 12.9163 15.689 13.99 14.8909C14.0071 14.8776 14.0244 14.8646 14.042 14.8519C15.1802 13.988 16.0229 12.7549 16.3914 11.3309C14.8394 12.155 12.698 12.9355 10.1452 12.9355C7.59243 12.9355 5.45096 12.155 3.89899 11.3309ZM8.42834 38.7419L7.10555 18.9001C8.06146 19.2161 9.08336 19.3871 10.1452 19.3871C11.207 19.3871 12.2289 19.2161 13.1848 18.9001L11.862 38.7419H8.42834Z"
        fill="#CF0303" />
</svg>