<svg width="43" height="42" viewBox="0 0 43 42" fill="none" xmlns="http://www.w3.org/2000/svg">
    <path fill-rule="evenodd" clip-rule="evenodd"
        d="M34.6657 0.155049C35.2684 0.404695 35.6614 0.992818 35.6614 1.64518V4.2029L37.7467 2.11759C38.3766 1.48771 39.3978 1.48771 40.0277 2.11759C40.6576 2.74746 40.6576 3.7687 40.0277 4.39858L37.9424 6.48389H40.5001C41.1524 6.48389 41.7406 6.87686 41.9902 7.47956C42.2399 8.08226 42.1019 8.776 41.6406 9.23728L35.189 15.6889C34.8865 15.9914 34.4762 16.1613 34.0485 16.1613H28.2649L22.6489 21.7774C22.7202 22.0439 22.7582 22.324 22.7582 22.6129C22.7582 24.3945 21.3139 25.8387 19.5323 25.8387C17.7508 25.8387 16.3065 24.3945 16.3065 22.6129C16.3065 20.8314 17.7508 19.3871 19.5323 19.3871C19.8213 19.3871 20.1014 19.4251 20.3679 19.4964L25.984 13.8803V8.09679C25.984 7.66902 26.1539 7.25877 26.4564 6.9563L32.908 0.504682C33.3693 0.043395 34.063 -0.0945981 34.6657 0.155049ZM29.2098 10.6545L32.4356 7.4287V5.53907L29.2098 8.76488V10.6545ZM31.4908 12.9355L33.3804 12.9355L36.6062 9.70969H34.7166L31.4908 12.9355Z"
        fill="#CF0303" />
    <path
        d="M11.9602 8.37183C14.9676 6.77275 18.4041 6.16681 21.7771 6.64085C22.6592 6.76483 23.4748 6.15023 23.5987 5.26812C23.7227 4.38601 23.1081 3.57041 22.226 3.44644C18.1785 2.87759 14.0547 3.60472 10.4458 5.52361C6.83689 7.4425 3.9281 10.4546 2.13633 14.1283C0.344562 17.802 -0.238207 21.9486 0.471552 25.9739C1.18131 29.9991 3.14716 33.6963 6.08735 36.5356C9.02753 39.3749 12.7911 41.2105 16.8387 41.7794C20.8862 42.3482 25.01 41.6211 28.6189 39.7022C32.2278 37.7833 35.1366 34.7712 36.9284 31.0975C38.7201 27.4238 39.3029 23.2772 38.5931 19.252C38.4385 18.3747 37.6019 17.789 36.7247 17.9437C35.8474 18.0984 35.2617 18.9349 35.4163 19.8121C36.0078 23.1665 35.5222 26.622 34.029 29.6834C32.5359 32.7448 30.1119 35.2549 27.1045 36.854C24.097 38.4531 20.6606 39.059 17.2876 38.585C13.9146 38.1109 10.7783 36.5813 8.32818 34.2152C5.87802 31.8491 4.23982 28.7681 3.64835 25.4137C3.05689 22.0593 3.54253 18.6038 5.03567 15.5424C6.52881 12.481 8.9528 9.97091 11.9602 8.37183Z"
        fill="#CF0303" />
    <path
        d="M15.7463 15.4924C17.25 14.6928 18.9682 14.3899 20.6547 14.6269C21.5368 14.7509 22.3524 14.1363 22.4764 13.2542C22.6004 12.372 21.9858 11.5564 21.1037 11.4325C18.7426 11.1006 16.3371 11.5248 14.2319 12.6442C12.1267 13.7635 10.4299 15.5206 9.38467 17.6636C8.33947 19.8065 7.99952 22.2254 8.41355 24.5735C8.82758 26.9215 9.97432 29.0782 11.6894 30.7345C13.4045 32.3908 15.6 33.4615 17.961 33.7934C20.3221 34.1252 22.7276 33.701 24.8328 32.5817C26.938 31.4623 28.6348 29.7053 29.68 27.5623C30.7252 25.4193 31.0652 23.0004 30.6511 20.6524C30.4965 19.7751 29.6599 19.1894 28.7827 19.3441C27.9054 19.4987 27.3197 20.3353 27.4743 21.2125C27.7701 22.8897 27.5273 24.6175 26.7807 26.1482C26.0341 27.6789 24.8221 28.9339 23.3184 29.7335C21.8147 30.533 20.0965 30.836 18.41 30.599C16.7235 30.3619 15.1553 29.5971 13.9303 28.414C12.7052 27.231 11.8861 25.6905 11.5903 24.0133C11.2946 22.3361 11.5374 20.6084 12.284 19.0777C13.0306 17.547 14.2426 16.2919 15.7463 15.4924Z"
        fill="#CF0303" />
</svg>