<svg width="147" height="25" viewBox="0 0 147 25" fill="none" xmlns="http://www.w3.org/2000/svg">
    <path opacity="0.5" fill-rule="evenodd" clip-rule="evenodd"
        d="M68.1032 7.68934H65.7979C67.2362 7.68934 67.0249 11.3995 66.882 12.9022L65.2641 24.883H69.5974L71.9136 7.69602H68.1023L68.1032 7.68934ZM32.5849 7.68934H30.2796C31.712 7.68934 31.5082 11.3703 31.3646 12.8829L29.7467 24.883H34.0775L36.3945 7.69602H32.584V7.68934H32.5849V7.68934ZM103.96 7.75115H101.894C103.695 7.75115 102.085 11.088 102.085 11.088L102.095 11.0838C101.348 12.7567 100.841 14.5273 100.591 16.3426C100.156 19.5833 100.632 22.5744 101.642 24.9381H120.988L122.404 14.4332H113.045L112.545 18.1292H117.54L117.119 21.2438H105.217C104.8 19.6449 104.699 17.98 104.921 16.3426C105.158 14.626 105.707 12.9673 106.54 11.448H122.808L123.303 7.75199H103.961L103.96 7.75115V7.75115ZM94.3134 7.67848H92.0081C93.4456 7.67848 93.2334 11.3903 93.0898 12.8921L92.1927 19.5566L82.4745 7.68266H78.1855V7.67431H75.8836C77.686 7.67431 76.8967 13.5161 76.8967 13.5161L76.9067 13.5136L75.3749 24.8722H79.7424L81.372 12.7877L91.3057 24.8722H95.8018L98.1196 7.6835H94.3134V7.67848V7.67848ZM146.323 10.9168L146.794 7.42791H126.366V7.42874H124.547C126.348 7.42874 125.56 13.2705 125.56 13.2705L125.578 13.2663L124.965 17.8084H141.194L140.742 21.1311H124.514L124.046 24.6191H144.477L145.893 14.1116H129.71L130.142 10.9176H146.323V10.9168V10.9168ZM63.0599 7.66094H59.3205L59.3063 7.65008H57.2674C57.2674 7.65008 58.7442 8.56134 57.4119 10.8433C57.3852 10.8859 57.3601 10.9293 57.3326 10.9719C57.2908 11.0404 57.2415 11.1114 57.1931 11.1832C55.7707 13.2505 53.66 14.3705 51.6312 14.3705H46.7975L47.7506 7.66011H41.7693C43.0631 7.66011 43.0197 10.6712 42.8927 12.3668L42.6087 14.3697H38.8618L38.3348 18.0807H42.0817L41.112 24.9156H45.3008L46.2722 18.0807H51.145C54.1269 18.0807 56.3102 20.2891 56.3796 24.9156H60.7296C60.9626 21.2898 58.5145 17.2455 55.5602 16.2039C58.8811 14.9544 62.0192 11.5791 63.0599 7.66094V7.66094ZM29.3124 0H24.6266C24.6266 0 27.3512 -7.96559e-07 21.1144 9.69896L21.1277 9.69228L15.6543 18.1876L9.15604 0H0C0 0 2.50242 0.0317397 5.31805 7.42456L5.31638 7.37862L11.9625 24.9298H17.1987L33.6573 0H29.3124Z"
        fill="#010000" />
</svg>